<?xml version="1.0" encoding="UTF-8" standalone="no"?>
<svg
   xmlns:dc="http://purl.org/dc/elements/1.1/"
   xmlns:cc="http://creativecommons.org/ns#"
   xmlns:rdf="http://www.w3.org/1999/02/22-rdf-syntax-ns#"
   xmlns:svg="http://www.w3.org/2000/svg"
   xmlns="http://www.w3.org/2000/svg"
   version="1.1"
   id="svg2"
   viewBox="0 0 744.09448819 1052.3622047"
   height="297mm"
   width="210mm">
  <defs
     id="defs4" />
  <metadata
     id="metadata7">
    <rdf:RDF>
      <cc:Work
         rdf:about="">
        <dc:format>image/svg+xml</dc:format>
        <dc:type
           rdf:resource="http://purl.org/dc/dcmitype/StillImage" />
        <dc:title></dc:title>
      </cc:Work>
    </rdf:RDF>
  </metadata>
  <g
     id="layer1">
    <path
       style="opacity:0.97000002;fill:none;fill-opacity:1;stroke:#000000;stroke-width:1.70102251;stroke-linecap:butt;stroke-linejoin:miter;stroke-miterlimit:4;stroke-dasharray:none;stroke-dashoffset:0;stroke-opacity:1"
       d="m -97.503603,510.74082 c 0,0 -36.533757,188.45987 -36.533757,188.45987 0,0 -185.03976,-74.01623 -185.03976,-74.01623 0,0 22.29498,-116.91516 22.29498,-116.91516 0,0 199.278537,2.47152 199.278537,2.47152 m -50.879677,221.02029 c 0,0 -114.5239,154.1613 -114.5239,154.1613 0,0 -135.58545,-146.06382 -135.58545,-146.06382 0,0 70.97457,-95.44074 70.97457,-95.44074 0,0 179.13478,87.34326 179.13478,87.34326 m -141.62987,177.35463 c 0,0 -172.10707,90.017 -172.10707,90.017 0,0 -55.63413,-191.3712 -55.63413,-191.3712 0,0 103.34092,-54.34629 103.34092,-54.34629 0,0 124.40028,155.70049 124.40028,155.70049 m -204.17238,98.48766 c 0,0 -194.80922,6.6512 -194.80922,6.6512 0,0 32.57487,-196.61341 32.57487,-196.61341 0,0 116.01947,-3.89928 116.01947,-3.89928 0,0 46.21488,193.86149 46.21488,193.86149 m -227.50449,0.3775 c 0,0 -177.80892,-78.27707 -177.80892,-78.27707 0,0 113.5407,-163.78852 113.5407,-163.78852 0,0 106.66092,47.33277 106.66092,47.33277 0,0 -42.3927,194.73282 -42.3927,194.73282 m -206.22632,-99.47199 c 0,0 -125.46806,-147.2263 -125.46806,-147.2263 0,0 173.95801,-97.2458 173.95801,-97.2458 0,0 76.51662,89.25755 76.51662,89.25755 0,0 -125.00657,155.21455 -125.00657,155.21455 M -1069.8446,729.76387 c 0,0 -48.6525,-186.23894 -48.6525,-186.23894 0,0 198.89466,-12.60403 198.89466,-12.60403 0,0 30.3383,114.52927 30.3383,114.52927 0,0 -180.58046,84.3137 -180.58046,84.3137 m -49.7877,-222.05431 c 0,0 36.7348,-188.41988 36.7348,-188.41988 0,0 185.03966,74.01623 185.03966,74.01623 0,0 -22.4959,116.87516 -22.4959,116.87516 0,0 -199.27856,-2.47151 -199.27856,-2.47151 m 51.1181,-220.96371 c 0,0 114.68876,-154.03898 114.68876,-154.03898 0,0 135.58549,146.06382 135.58549,146.06382 0,0 -71.13949,95.31841 -71.13949,95.31841 0,0 -179.13476,-87.34325 -179.13476,-87.34325 m 141.82186,-177.2009 c 0,0 172.20724,-89.823879 172.20724,-89.823879 0,0 55.63413,191.371239 55.63413,191.371239 0,0 -103.44111,54.15313 -103.44111,54.15313 0,0 -124.40026,-155.70049 -124.40026,-155.70049 m 204.27955,-98.268057 c 0,0 194.44559,-6.4226031 194.44559,-6.4226031 0,0 -31.8461,196.7330901 -31.8461,196.7330901 0,0 -116.3846,3.55102 -116.3846,3.55102 0,0 -46.21489,-193.861507 -46.21489,-193.861507 m 229.40314,0.410132 c 0,0 175.37001,77.658218 175.37001,77.658218 0,0 -112.59079,164.442707 -112.59079,164.442707 0,0 -108.9941,-48.23942 -108.9941,-48.23942 0,0 46.21488,-193.861505 46.21488,-193.861505 m 203.94092,98.961915 c 0,0 124.71794,146.14972 124.71794,146.14972 0,0 -172.262,100.21929 -172.262,100.21929 0,0 -76.85623,-90.66852 -76.85623,-90.66852 0,0 124.40029,-155.70049 124.40029,-155.70049 m 141.21524,177.68663 c 0,0 49.247437,187.9327 49.247437,187.9327 0,0 -198.911867,12.33398 -198.911867,12.33398 0,0 -29.47035,-112.92342 -29.47035,-112.92342 0,0 179.13478,-87.34326 179.13478,-87.34326"
       id="path0116" />
  </g>
</svg>
